<?xml version="1.0" encoding="UTF-8"?>
<svg id="Layer_1" xmlns="http://www.w3.org/2000/svg" version="1.1" viewBox="0 0 14 14">
  <!-- Generator: Adobe Illustrator 29.5.1, SVG Export Plug-In . SVG Version: 2.1.0 Build 141)  -->
  <defs>
    <style>
      .st0 {
        fill: #929292;
      }
    </style>
  </defs>
  <path class="st0" d="M10.93335,10.59335c-.1733-.53333-.67333-.92667-1.26667-.92667h-.66666v-2c0-.17681-.07024-.34638-.19527-.4714-.12502-.12503-.29459-.19526-.4714-.19526h-4v-1.33334h1.33333c.17681,0,.34638-.07024.47141-.19526.12502-.12502.19526-.29459.19526-.4714v-1.33334h1.33333c.35362,0,.69276-.14047.94281-.39052.25005-.25005.39053-.58919.39053-.94281v-.27333c1.95333.78666,3.33333,2.7,3.33333,4.94,0,1.38666-.5333,2.64666-1.4,3.59333ZM6.33335,12.28665c-2.63333-.3266-4.66667-2.56663-4.66667-5.28663,0-.41334.05334-.81334.14-1.19334l3.19334,3.19334v.66666c0,.35362.14047.69277.39052.94277.25005.2501.58919.3906.94281.3906M7.00002.33335c-.87548,0-1.74239.17244-2.55123.50747-.80883.33503-1.54376.82609-2.16282,1.44515C1.03573,3.53621.33335,5.23191.33335,7.00002s.70238,3.46383,1.95262,4.71403c.61906.6191,1.35399,1.1101,2.16282,1.4452.80884.335,1.67575.5074,2.55123.5074,1.76811,0,3.46383-.7023,4.71403-1.9526,1.2503-1.2502,1.9526-2.94592,1.9526-4.71403,0-.87548-.1724-1.74239-.5074-2.55123-.3351-.80883-.8261-1.54376-1.4452-2.16282-.619-.61906-1.354-1.11012-2.16281-1.44515-.80884-.33503-1.67574-.50747-2.55122-.50747Z"/>
</svg>